<svg width="21" height="21" viewBox="0 0 21 21" fill="none" xmlns="http://www.w3.org/2000/svg">
<g clip-path="url(#clip0_98_394)">
<path fill-rule="evenodd" clip-rule="evenodd" d="M10.5 15.75C13.3995 15.75 15.75 13.3995 15.75 10.5C15.75 7.6005 13.3995 5.25 10.5 5.25C7.6005 5.25 5.25 7.6005 5.25 10.5C5.25 13.3995 7.6005 15.75 10.5 15.75ZM10.5 14C12.433 14 14 12.433 14 10.5C14 8.567 12.433 7 10.5 7C8.567 7 7 8.567 7 10.5C7 12.433 8.567 14 10.5 14Z" fill="#0F0F0F"/>
<path d="M15.75 4.375C15.2667 4.375 14.875 4.76676 14.875 5.25C14.875 5.73325 15.2667 6.125 15.75 6.125C16.2333 6.125 16.625 5.73325 16.625 5.25C16.625 4.76676 16.2333 4.375 15.75 4.375Z" fill="#0F0F0F"/>
<path fill-rule="evenodd" clip-rule="evenodd" d="M1.44721 3.74155C0.875 4.86459 0.875 6.33473 0.875 9.275V11.725C0.875 14.6653 0.875 16.1354 1.44721 17.2584C1.95055 18.2463 2.75369 19.0494 3.74155 19.5527C4.86459 20.125 6.33473 20.125 9.275 20.125H11.725C14.6653 20.125 16.1354 20.125 17.2584 19.5527C18.2463 19.0494 19.0494 18.2463 19.5527 17.2584C20.125 16.1354 20.125 14.6653 20.125 11.725V9.275C20.125 6.33473 20.125 4.86459 19.5527 3.74155C19.0494 2.75369 18.2463 1.95055 17.2584 1.44721C16.1354 0.875 14.6653 0.875 11.725 0.875H9.275C6.33473 0.875 4.86459 0.875 3.74155 1.44721C2.75369 1.95055 1.95055 2.75369 1.44721 3.74155ZM11.725 2.625H9.275C7.77598 2.625 6.75697 2.62636 5.96932 2.69071C5.20209 2.7534 4.80973 2.86702 4.53603 3.00647C3.87747 3.34204 3.34204 3.87747 3.00647 4.53603C2.86702 4.80973 2.7534 5.20209 2.69071 5.96932C2.62636 6.75697 2.625 7.77598 2.625 9.275V11.725C2.625 13.224 2.62636 14.243 2.69071 15.0307C2.7534 15.7979 2.86702 16.1903 3.00647 16.464C3.34204 17.1225 3.87747 17.6579 4.53603 17.9935C4.80973 18.133 5.20209 18.2466 5.96932 18.3093C6.75697 18.3736 7.77598 18.375 9.275 18.375H11.725C13.224 18.375 14.243 18.3736 15.0307 18.3093C15.7979 18.2466 16.1903 18.133 16.464 17.9935C17.1225 17.6579 17.6579 17.1225 17.9935 16.464C18.133 16.1903 18.2466 15.7979 18.3093 15.0307C18.3736 14.243 18.375 13.224 18.375 11.725V9.275C18.375 7.77598 18.3736 6.75697 18.3093 5.96932C18.2466 5.20209 18.133 4.80973 17.9935 4.53603C17.6579 3.87747 17.1225 3.34204 16.464 3.00647C16.1903 2.86702 15.7979 2.7534 15.0307 2.69071C14.243 2.62636 13.224 2.625 11.725 2.625Z" fill="#0F0F0F"/>
</g>
<defs>
<clipPath id="clip0_98_394">
<rect width="21" height="21" fill="white"/>
</clipPath>
</defs>
</svg>
