<svg width="25" height="25" viewBox="0 0 25 25" fill="none" xmlns="http://www.w3.org/2000/svg">
<g clip-path="url(#clip0_124_1292)">
<path d="M0 10.4042C0 16.1424 4.6683 20.8056 10.4013 20.8056C13.0426 20.8056 15.4586 19.8125 17.2963 18.1847L23.9251 24.8135C24.0479 24.9364 24.2066 24.9978 24.3704 24.9978C24.5342 24.9978 24.6929 24.9364 24.8157 24.8135C25.0614 24.5678 25.0614 24.1737 24.8157 23.928L18.1818 17.2992C19.8096 15.4616 20.8026 13.0506 20.8026 10.4042C20.8026 4.66612 16.1343 0.00292969 10.4013 0.00292969C4.6683 0.00292969 0 4.66612 0 10.4042ZM19.5485 10.4042C19.5485 15.4462 15.4433 19.5515 10.4013 19.5515C5.35934 19.5515 1.2541 15.4462 1.2541 10.4042C1.2541 5.36227 5.35934 1.25702 10.4013 1.25702C15.4433 1.25702 19.5485 5.35715 19.5485 10.4042Z" fill="black"/>
</g>
<defs>
<clipPath id="clip0_124_1292">
<rect width="25" height="25" fill="white"/>
</clipPath>
</defs>
</svg>
