<svg width="22" height="24" viewBox="0 0 22 24" fill="none" xmlns="http://www.w3.org/2000/svg">
<path d="M19.25 7.5C18.0653 7.49854 16.9294 6.98445 16.0916 6.07053C15.2539 5.15661 14.7826 3.91748 14.7813 2.625C14.7813 2.52555 14.7451 2.43017 14.6806 2.35984C14.6161 2.28952 14.5287 2.25 14.4375 2.25H11C10.9089 2.25 10.8214 2.28952 10.757 2.35984C10.6925 2.43017 10.6563 2.52555 10.6563 2.625V14.625C10.6562 15.0276 10.557 15.4229 10.3692 15.7694C10.1813 16.116 9.91169 16.4013 9.58835 16.5954C9.26502 16.7896 8.89985 16.8855 8.53094 16.8733C8.16203 16.861 7.8029 16.7409 7.49101 16.5257C7.17912 16.3104 6.92589 16.0077 6.75775 15.6493C6.58961 15.2909 6.51271 14.8898 6.53508 14.4879C6.55745 14.086 6.67827 13.6981 6.88493 13.3645C7.09159 13.0309 7.37652 12.7639 7.71 12.5913C7.76872 12.5609 7.81834 12.5129 7.85307 12.453C7.88781 12.393 7.90625 12.3236 7.90625 12.2526L7.90629 8.34897C7.9063 8.29416 7.89529 8.24001 7.87404 8.19034C7.85279 8.14067 7.82181 8.09668 7.78329 8.06149C7.74478 8.02629 7.69965 8.00073 7.6511 7.98661C7.60255 7.9725 7.55175 7.97017 7.50229 7.97978C6.34355 8.20621 5.26807 8.78851 4.40205 9.65833C3.53603 10.5282 2.91541 11.6494 2.61303 12.8905C2.31065 14.1316 2.33905 15.4411 2.69491 16.6652C3.05076 17.8893 3.71931 18.9773 4.62207 19.8014C5.52484 20.6256 6.62437 21.1517 7.79162 21.3181C8.95887 21.4845 10.1454 21.2842 11.212 20.7407C12.2786 20.1973 13.1809 19.3332 13.8131 18.25C14.4453 17.1667 14.7812 15.9092 14.7813 14.625L14.7812 10.6347C16.1266 11.5315 17.6734 12.0041 19.25 12C19.3412 12 19.4286 11.9605 19.4931 11.8902C19.5576 11.8198 19.5938 11.7245 19.5938 11.625V7.875C19.5938 7.77555 19.5576 7.68016 19.4931 7.60984C19.4286 7.53952 19.3412 7.5 19.25 7.5ZM18.9063 11.242C17.3696 11.1734 15.8854 10.6133 14.6382 9.63148C14.5869 9.59119 14.5263 9.56713 14.4633 9.56196C14.4002 9.55679 14.337 9.57071 14.2807 9.60218C14.2244 9.63366 14.1772 9.68146 14.1442 9.74034C14.1112 9.79922 14.0938 9.86689 14.0938 9.93589L14.0938 14.625C14.0935 15.7471 13.8047 16.8467 13.2603 17.7987C12.7159 18.7508 11.9376 19.5172 11.014 20.011C10.0903 20.5048 9.0582 20.7061 8.03491 20.5921C7.01163 20.478 6.03815 20.0533 5.22506 19.366C4.41197 18.6787 3.79185 17.7564 3.43513 16.7039C3.07841 15.6514 2.99938 14.5109 3.20703 13.4119C3.41467 12.3129 3.90067 11.2994 4.60982 10.4866C5.31896 9.67377 6.22284 9.09418 7.21879 8.81365L7.21875 12.0266C6.80066 12.2898 6.45346 12.6685 6.21206 13.1246C5.97066 13.5807 5.84355 14.098 5.84352 14.6247C5.84349 15.1513 5.97054 15.6687 6.21189 16.1248C6.45324 16.5809 6.80039 16.9596 7.21846 17.223C7.63652 17.4863 8.11076 17.625 8.59351 17.625C9.07626 17.625 9.55051 17.4864 9.9686 17.2231C10.3867 16.9598 10.7339 16.5811 10.9753 16.1251C11.2167 15.669 11.3438 15.1516 11.3438 14.625V3H14.1051C14.1901 4.35857 14.7232 5.63761 15.6058 6.6005C16.4885 7.56339 17.6609 8.14497 18.9063 8.23764V11.242Z" fill="black"/>
</svg>
