<svg id="Layer_1" data-name="Layer 1" xmlns="http://www.w3.org/2000/svg" viewBox="0 0 512 512"><defs><style>.cls-1{fill:#2b374f;}</style></defs><title>fish-outline</title><path class="cls-1" d="M508.93,34.26A36.25,36.25,0,0,0,477.74,3.07c-35.59-4.93-126-10.73-197.48,42.07a37.48,37.48,0,0,0-15.11,27.4,37,37,0,0,0,10.67,29l58.3,58.3-33.46,33.46-48.21-48.21a12.77,12.77,0,1,0-18.06,18.06l48.21,48.21-27.74,27.74L218.1,202.31A12.77,12.77,0,0,0,200,220.37l36.77,36.77-27.74,27.74-25.32-25.32a12.77,12.77,0,0,0-18.06,18.06L191,302.93l-27.74,27.74L149.41,316.8a12.77,12.77,0,1,0-18.06,18.06l13.87,13.87-29.6,29.6A28.92,28.92,0,0,0,105,376.81l-77.24,3.36A29,29,0,0,0,8.54,429.58l73.88,73.89A28.64,28.64,0,0,0,102.75,512a29.33,29.33,0,0,0,10.65-2,28.6,28.6,0,0,0,18.43-25.73L135.19,407a29,29,0,0,0-1.53-10.6l29.61-29.61,13.87,13.87A12.77,12.77,0,1,0,195.2,362.6l-13.87-13.87L209.07,321l25.32,25.32a12.77,12.77,0,0,0,18.06-18.06l-25.32-25.32,27.74-27.74L291.63,312a12.77,12.77,0,0,0,18.06-18.06l-36.77-36.77,27.74-27.74,48.22,48.21a12.77,12.77,0,1,0,18.06-18.06l-48.22-48.21,33.46-33.46,58.3,58.3A37,37,0,0,0,436.65,247c.93,0,1.87,0,2.81-.1a37.5,37.5,0,0,0,27.39-15.11C519.66,160.3,513.87,69.84,508.93,34.26ZM106.32,483.13a3.42,3.42,0,0,1-5.84,2.27L26.6,411.52a3.42,3.42,0,0,1,2.27-5.83l77.24-3.36a3.21,3.21,0,0,1,2.57,1,3.34,3.34,0,0,1,1,2.57Zm340-266.57h0a11.86,11.86,0,0,1-8.76,4.82,11.38,11.38,0,0,1-9-3.26l-67.28-67.29,0,0,0,0L293.87,83.46a11.5,11.5,0,0,1-3.26-9,11.87,11.87,0,0,1,4.82-8.76C339.69,33,392.84,25.51,432.13,25.51a309.91,309.91,0,0,1,42.1,2.85,10.92,10.92,0,0,1,9.4,9.4C488.13,70.25,493.53,152.68,446.31,216.56Z"/><circle class="cls-1" cx="380.8" cy="96.85" r="24.29" transform="translate(43.05 297.63) rotate(-45)"/></svg>